<?xml version="1.0" encoding="UTF-8" standalone="no"?>
<!-- Created with Inkscape (http://www.inkscape.org/) -->

<svg
   xmlns:dc="http://purl.org/dc/elements/1.1/"
   xmlns:cc="http://creativecommons.org/ns#"
   xmlns:rdf="http://www.w3.org/1999/02/22-rdf-syntax-ns#"
   xmlns:svg="http://www.w3.org/2000/svg"
   xmlns="http://www.w3.org/2000/svg"
   xmlns:sodipodi="http://sodipodi.sourceforge.net/DTD/sodipodi-0.dtd"
   xmlns:inkscape="http://www.inkscape.org/namespaces/inkscape"
   width="210mm"
   height="297mm"
   viewBox="0 0 744.09448819 1052.3622047"
   id="svg2"
   version="1.1"
   inkscape:version="0.91 r13725"
   sodipodi:docname="buttons.svg">
  <defs
     id="defs4" />
  <sodipodi:namedview
     id="base"
     pagecolor="#ffffff"
     bordercolor="#666666"
     borderopacity="1.0"
     inkscape:pageopacity="0.0"
     inkscape:pageshadow="2"
     inkscape:zoom="1"
     inkscape:cx="190.78075"
     inkscape:cy="1017.3408"
     inkscape:document-units="px"
     inkscape:current-layer="layer1"
     showgrid="true"
     showguides="false"
     inkscape:snap-bbox="true"
     inkscape:window-width="1366"
     inkscape:window-height="732"
     inkscape:window-x="0"
     inkscape:window-y="0"
     inkscape:window-maximized="1">
    <inkscape:grid
       type="xygrid"
       id="grid3405" />
  </sodipodi:namedview>
  <metadata
     id="metadata7">
    <rdf:RDF>
      <cc:Work
         rdf:about="">
        <dc:format>image/svg+xml</dc:format>
        <dc:type
           rdf:resource="http://purl.org/dc/dcmitype/StillImage" />
        <dc:title></dc:title>
      </cc:Work>
    </rdf:RDF>
  </metadata>
  <g
     inkscape:label="Layer 1"
     inkscape:groupmode="layer"
     id="layer1">
    <path
       id="path3396"
       d="m 110.1607,12.2551 c -16.644063,0 -30.125,13.480937 -30.125,30.125 0,16.644062 13.480937,30.125 30.125,30.125 16.64406,0 30.125,-13.480938 30.125,-30.125 0,-16.644063 -13.48094,-30.125 -30.125,-30.125 z m -10.03125,15.0625 25.09375,15.0625 -24.84375,15.0625 z"
       inkscape:connector-curvature="0"
       style="fill:#000000"
       inkscape:export-xdpi="96"
       inkscape:export-ydpi="96"
       sodipodi:nodetypes="ssssscccc" />
    <path
       style="fill:#000000;stroke:none"
       d="m 40,12.361328 a 30,30 0 0 0 -30,30 30,30 0 0 0 30,30 30,30 0 0 0 30,-30 30,30 0 0 0 -30,-30 z m -14.75,15 10,0 0,30 -10,0 0,-30 z m 20,0 10,0 0,30 -10,0 0,-30 z"
       id="path3407"
       inkscape:connector-curvature="0"
       inkscape:export-xdpi="96"
       inkscape:export-ydpi="96" />
    <path
       style="fill:#000000;stroke:none"
       d="M 180 12.361328 A 30 30 0 0 0 150 42.361328 A 30 30 0 0 0 180 72.361328 A 30 30 0 0 0 210 42.361328 A 30 30 0 0 0 180 12.361328 z M 185 27.361328 L 200 42.361328 L 185 57.361328 L 185 47.361328 L 165 47.361328 L 165 37.361328 L 185 37.361328 L 185 27.361328 z "
       id="path3444" />
    <path
       id="path3468"
       d="m 250.00357,12.361328 a 30,30 0 0 1 30,30 30,30 0 0 1 -30,30 30,30 0 0 1 -30,-30 30,30 0 0 1 30,-30 z m -5,15 -15,15 15,15 0,-10 20,0 0,-10 -20,0 0,-10 z"
       style="fill:#000000;stroke:none"
       inkscape:connector-curvature="0" />
  </g>
</svg>
