<svg width="108" height="108" viewBox="0 0 108 108" fill="none" xmlns="http://www.w3.org/2000/svg">
<g clip-path="url(#clip0)">
<path d="M0 54C0 24.1766 24.1766 0 54 0V0C83.8234 0 108 24.1766 108 54V54C108 83.8234 83.8234 108 54 108V108C24.1766 108 0 83.8234 0 54V54Z" fill="#DDDDDD"/>
<path d="M0 54C0 24.1766 24.1766 0 54 0V0C83.8234 0 108 24.1766 108 54V54C108 83.8234 83.8234 108 54 108V108C24.1766 108 0 83.8234 0 54V54Z" fill="#3DDC84"/>
<path d="M31 63.928C31 63.928 37.4 52.928 43.1 50.828C50.3 48.228 69.1 49.428 69.1 49.428L107.2 87.528L107 108.928L75 107.928L31 63.928Z" fill="url(#paint0_linear)"/>
<path d="M65.3 45.828L69.1 39.228C69.3 38.828 69.2 38.328 68.8 38.128C68.4 37.928 67.9 38.028 67.7 38.428L63.8 45.128C57.5 42.328 50.4 42.328 44.1 45.128L40.2 38.428C40 38.028 39.5 37.928 39.1 38.128C38.8 38.328 38.7 38.828 38.9 39.228L42.7 45.828C36.2 49.428 31.7 56.028 31 63.928H77C76.3 56.028 71.8 49.428 65.3 45.828ZM43.4 57.328C42.6 57.328 41.9 56.828 41.6 56.128C41.3 55.428 41.5 54.628 42 54.028C42.5 53.528 43.4 53.328 44.1 53.628C44.8 53.928 45.3 54.628 45.3 55.428C45.3 56.528 44.5 57.328 43.4 57.328ZM64.6 57.328C63.8 57.328 63.1 56.828 62.8 56.128C62.5 55.428 62.7 54.628 63.2 54.028C63.7 53.528 64.6 53.328 65.3 53.628C66 53.928 66.5 54.628 66.5 55.428C66.5 56.528 65.6 57.328 64.6 57.328Z" fill="white"/>
</g>
<defs>
<linearGradient id="paint0_linear" x1="42.9046" y1="49.1515" x2="85.3706" y2="94.4668" gradientUnits="userSpaceOnUse">
<stop stop-opacity="0.3"/>
<stop offset="1" stop-opacity="0"/>
</linearGradient>
<clipPath id="clip0">
<rect width="108" height="108" fill="white"/>
</clipPath>
</defs>
</svg>
